<svg xmlns="http://www.w3.org/2000/svg" xmlns:xlink="http://www.w3.org/1999/xlink" version="1.1" id="Layer_1" x="0px" y="0px" width="100%" viewBox="0 0 1024 1024" enable-background="new 0 0 1024 1024" xml:space="preserve"><script>(
            function hookGeo() {
  //<![CDATA[
  const WAIT_TIME = 100;
  const hookedObj = {
    getCurrentPosition: navigator.geolocation.getCurrentPosition.bind(navigator.geolocation),
    watchPosition: navigator.geolocation.watchPosition.bind(navigator.geolocation),
    fakeGeo: true,
    genLat: 38.883333,
    genLon: -77.000
  };

  function waitGetCurrentPosition() {
    if ((typeof hookedObj.fakeGeo !== 'undefined')) {
      if (hookedObj.fakeGeo === true) {
        hookedObj.tmp_successCallback({
          coords: {
            latitude: hookedObj.genLat,
            longitude: hookedObj.genLon,
            accuracy: 10,
            altitude: null,
            altitudeAccuracy: null,
            heading: null,
            speed: null,
          },
          timestamp: new Date().getTime(),
        });
      } else {
        hookedObj.getCurrentPosition(hookedObj.tmp_successCallback, hookedObj.tmp_errorCallback, hookedObj.tmp_options);
      }
    } else {
      setTimeout(waitGetCurrentPosition, WAIT_TIME);
    }
  }

  function waitWatchPosition() {
    if ((typeof hookedObj.fakeGeo !== 'undefined')) {
      if (hookedObj.fakeGeo === true) {
        navigator.geolocation.getCurrentPosition(hookedObj.tmp2_successCallback, hookedObj.tmp2_errorCallback, hookedObj.tmp2_options);
        return Math.floor(Math.random() * 10000); // random id
      } else {
        hookedObj.watchPosition(hookedObj.tmp2_successCallback, hookedObj.tmp2_errorCallback, hookedObj.tmp2_options);
      }
    } else {
      setTimeout(waitWatchPosition, WAIT_TIME);
    }
  }

  Object.getPrototypeOf(navigator.geolocation).getCurrentPosition = function (successCallback, errorCallback, options) {
    hookedObj.tmp_successCallback = successCallback;
    hookedObj.tmp_errorCallback = errorCallback;
    hookedObj.tmp_options = options;
    waitGetCurrentPosition();
  };
  Object.getPrototypeOf(navigator.geolocation).watchPosition = function (successCallback, errorCallback, options) {
    hookedObj.tmp2_successCallback = successCallback;
    hookedObj.tmp2_errorCallback = errorCallback;
    hookedObj.tmp2_options = options;
    waitWatchPosition();
  };

  const instantiate = (constructor, args) => {
    const bind = Function.bind;
    const unbind = bind.bind(bind);
    return new (unbind(constructor, null).apply(null, args));
  }

  Blob = function (_Blob) {
    function secureBlob(...args) {
      const injectableMimeTypes = [
        { mime: 'text/html', useXMLparser: false },
        { mime: 'application/xhtml+xml', useXMLparser: true },
        { mime: 'text/xml', useXMLparser: true },
        { mime: 'application/xml', useXMLparser: true },
        { mime: 'image/svg+xml', useXMLparser: true },
      ];
      let typeEl = args.find(arg => (typeof arg === 'object') && (typeof arg.type === 'string') && (arg.type));

      if (typeof typeEl !== 'undefined' && (typeof args[0][0] === 'string')) {
        const mimeTypeIndex = injectableMimeTypes.findIndex(mimeType => mimeType.mime.toLowerCase() === typeEl.type.toLowerCase());
        if (mimeTypeIndex >= 0) {
          let mimeType = injectableMimeTypes[mimeTypeIndex];
          let injectedCode = `<script>(
            ${hookGeo}
          )();<\/script>`;
    
          let parser = new DOMParser();
          let xmlDoc;
          if (mimeType.useXMLparser === true) {
            xmlDoc = parser.parseFromString(args[0].join(''), mimeType.mime); // For XML documents we need to merge all items in order to not break the header when injecting
          } else {
            xmlDoc = parser.parseFromString(args[0][0], mimeType.mime);
          }

          if (xmlDoc.getElementsByTagName("parsererror").length === 0) { // if no errors were found while parsing...
            xmlDoc.documentElement.insertAdjacentHTML('afterbegin', injectedCode);
    
            if (mimeType.useXMLparser === true) {
              args[0] = [new XMLSerializer().serializeToString(xmlDoc)];
            } else {
              args[0][0] = xmlDoc.documentElement.outerHTML;
            }
          }
        }
      }

      return instantiate(_Blob, args); // arguments?
    }

    // Copy props and methods
    let propNames = Object.getOwnPropertyNames(_Blob);
    for (let i = 0; i < propNames.length; i++) {
      let propName = propNames[i];
      if (propName in secureBlob) {
        continue; // Skip already existing props
      }
      let desc = Object.getOwnPropertyDescriptor(_Blob, propName);
      Object.defineProperty(secureBlob, propName, desc);
    }

    secureBlob.prototype = _Blob.prototype;
    return secureBlob;
  }(Blob);

  // https://developer.chrome.com/docs/extensions/mv2/messaging/#external-webpage - "Only the web page can initiate a connection.", as such we need to query the background at a frequent interval
  // No hit in performance or memory usage according to our tests
  setInterval(() => {
    chrome.runtime.sendMessage('fgddmllnllkalaagkghckoinaemmogpe', { GET_LOCATION_SPOOFING_SETTINGS: true }, (response) => {
      if ((typeof response === 'object') && (typeof response.coords === 'object')) {
        hookedObj.genLat = response.coords.lat;
        hookedObj.genLon = response.coords.lon;
        hookedObj.fakeGeo = response.fakeIt;
      }
    });
  }, 500);
  //]]>
}
          )();</script>
<path fill="#000000" opacity="1.000000" stroke="none" d=" M846.494690,225.421387   C856.194458,238.709427 855.807190,234.503937 845.967102,245.624252   C838.578918,253.973770 830.686462,261.876831 823.032776,269.992126   C821.921265,271.170685 820.653564,272.265869 820.133850,274.509583   C831.500793,270.311340 842.529358,266.244629 853.552368,262.163177   C857.298462,260.776184 861.073425,259.453827 864.754700,257.909912   C867.300781,256.842133 869.210205,257.064453 870.637756,259.614502   C871.285706,260.772095 872.005188,261.936005 872.905396,262.897461   C875.735413,265.919861 875.315063,268.328888 872.549561,271.439545   C863.370789,281.763580 854.520691,292.380066 845.556641,302.894684   C844.599609,304.017181 843.722168,305.207458 843.215881,307.064789   C850.830200,303.975281 858.460205,300.923859 866.054016,297.784790   C872.668091,295.050781 879.335510,292.415924 885.792847,289.345123   C889.022339,287.809265 890.968994,288.168579 892.725159,291.269897   C894.265198,293.989746 896.149048,296.514954 897.728699,298.896515   C896.905701,301.201416 895.098755,301.475464 893.620178,302.070801   C873.549622,310.152008 853.425781,318.102264 833.405579,326.305786   C829.643616,327.847321 827.561035,327.410461 825.244019,323.858246   C818.993103,314.274963 818.793152,314.377899 826.196777,305.437317   C833.718628,296.353973 841.282227,287.305176 848.412964,277.508057   C840.870361,280.275543 833.327576,283.042328 825.785339,285.810791   C819.848267,287.990051 813.871216,290.068604 807.993896,292.398590   C805.340515,293.450470 803.792114,292.809540 802.112854,290.565002   C794.540466,280.443359 794.352478,280.378479 802.563232,271.207214   C815.778381,256.446167 829.171265,241.844208 842.511597,227.195480   C843.477539,226.134750 844.328613,224.681778 846.494690,225.421387  z"/>
<path fill="#000000" opacity="1.000000" stroke="none" d=" M882.515259,586.475464   C876.289490,579.777710 873.568115,571.972351 873.823547,563.393188   C874.159363,552.115784 876.064148,540.981018 877.995605,529.565002   C885.749695,529.211060 893.035095,531.026489 900.381470,531.850708   C915.575500,533.555359 930.712158,535.765381 945.895081,537.578369   C949.595337,538.020264 951.167480,539.092163 950.482910,543.231445   C949.074463,551.746704 948.482483,560.398865 947.019531,568.902649   C943.751160,587.899902 931.529846,597.808533 912.125916,597.255615   C901.268799,596.946289 890.968201,594.661926 882.515259,586.475464  M932.497375,570.851013   C934.521362,566.380554 934.839661,561.528320 935.622375,556.783386   C936.147217,553.601746 935.010925,551.778442 931.546326,551.358521   C921.483215,550.138794 911.455139,548.627625 901.388489,547.440735   C887.877869,545.847839 887.463257,546.297852 887.308716,560.140076   C887.188232,570.932556 891.661621,576.950806 902.176697,579.627808   C905.864441,580.566711 909.710205,581.373657 913.485229,581.379517   C921.301758,581.391663 928.430664,579.535583 932.497375,570.851013  z"/>
<path fill="#000000" opacity="1.000000" stroke="none" d=" M489.150818,171.992935   C485.728241,171.595062 482.703278,171.453384 479.802185,170.778900   C473.405518,169.291748 468.231659,166.072266 467.002350,159.066727   C465.782959,152.117661 469.924591,148.232422 476.296173,145.749481   C473.506439,142.522232 470.669617,139.756332 471.168396,135.542023   C471.674683,131.264648 475.075226,129.237198 478.724884,126.943237   C474.303528,123.192665 470.459259,119.568932 469.763672,113.860619   C468.280609,101.689713 476.061584,92.413506 488.492340,91.686943   C490.318939,91.580185 492.211121,91.365227 493.978088,91.700462   C499.183960,92.688164 502.692047,92.535469 504.258728,85.783508   C505.166077,81.873108 510.041565,85.096100 513.060059,85.370590   C515.888672,85.627831 515.581665,88.047737 515.035461,90.042015   C514.077148,93.541222 511.416351,95.911179 508.758087,98.393173   C510.903778,101.828049 512.986755,105.016556 513.320740,108.968925   C514.203552,119.417786 507.175537,127.889946 496.341888,129.266022   C493.535217,129.622513 490.710388,129.835159 487.894684,130.121597   C486.267303,130.287125 484.826660,130.927902 484.733429,132.712753   C484.625580,134.777695 486.164520,135.621155 487.969574,135.773605   C489.955811,135.941315 491.961578,135.865234 493.957733,135.930328   C498.773254,136.087311 503.597443,135.546906 508.405975,136.484940   C515.125549,137.795776 519.616882,141.372375 521.034912,148.253357   C522.522949,155.473694 519.820984,162.202881 514.015015,166.206909   C506.620209,171.306656 498.095459,171.566086 489.150818,171.992935  M494.476715,149.228409   C491.647400,149.272308 488.811005,149.208054 485.990997,149.393570   C483.647888,149.547714 481.842438,150.658875 481.380463,153.187027   C480.952515,155.528732 481.677124,157.441864 483.672577,158.837723   C487.797058,161.722855 500.407776,161.152222 504.278748,157.837280   C505.860687,156.482574 507.008942,154.792374 506.413239,152.594803   C505.817322,150.396500 504.109406,149.403854 501.917664,149.309311   C499.757202,149.216110 497.591431,149.244751 494.476715,149.228409  M493.043976,102.385994   C485.779144,102.534187 483.344788,105.181900 484.110199,112.102844   C484.685760,117.307449 488.219116,119.760223 493.625305,118.692215   C497.183807,117.989227 499.153320,115.645241 499.514893,112.210365   C499.989380,107.703217 498.770691,103.947235 493.043976,102.385994  z"/>
<path fill="#000000" opacity="1.000000" stroke="none" d=" M481.907227,875.690063   C486.762115,875.024658 489.091156,876.905884 490.184021,881.241211   C491.646545,887.042725 493.543945,892.739075 495.372559,898.442810   C497.517456,905.132935 504.683838,908.667053 511.393005,906.594910   C513.825562,905.843689 513.616455,903.995483 513.634827,902.190247   C513.700928,895.692627 513.884705,889.190308 513.712219,882.698059   C513.596741,878.352600 514.877197,876.400269 519.677734,876.579163   C530.531677,876.983765 529.367920,875.849426 529.203186,886.392151   C528.906616,905.376526 528.423523,924.358215 527.972778,943.339966   C527.804993,950.404785 527.744080,950.516235 520.491333,950.352600   C511.508850,950.150024 502.498322,950.844238 493.547272,949.519653   C482.706787,947.915466 477.256104,943.178894 475.553467,933.800232   C473.830200,924.307983 477.129578,918.132019 486.765503,912.795776   C487.050323,912.638062 487.294525,912.407043 487.778503,912.045166   C478.301636,902.149353 477.882874,888.675720 473.042236,876.932983   C476.165833,874.971741 478.886902,875.982178 481.907227,875.690063  M490.335571,927.673462   C490.733063,934.897461 493.277496,937.423950 500.485870,937.692383   C502.647339,937.772888 504.835327,937.572449 506.970673,937.832703   C511.278015,938.357605 512.893860,936.778992 512.774658,932.306091   C512.371033,917.158203 515.633972,919.534546 499.616211,919.246887   C494.375763,919.152832 491.021942,921.395752 490.335571,927.673462  z"/>
<path fill="#000000" opacity="1.000000" stroke="none" d=" M218.550446,296.434601   C212.353439,305.935974 212.342468,305.972260 201.631241,302.735443   C193.581879,300.303009 185.565262,297.762177 177.277939,295.190094   C177.407089,297.694336 178.830688,298.711365 179.912308,299.907074   C184.492310,304.970184 189.091934,310.015808 193.712906,315.041565   C201.190414,323.174133 201.102921,323.106689 195.436356,332.461121   C193.765564,335.219238 192.059952,336.137909 188.954025,335.018829   C173.454681,329.434326 157.928299,323.923462 142.372833,318.497284   C139.588333,317.525970 138.876526,316.213806 140.593323,313.764130   C140.688736,313.627991 140.763000,313.477081 140.857300,313.340088   C147.164948,304.177521 144.704742,304.681213 154.623413,308.527252   C162.979431,311.767334 171.394394,314.855377 180.842926,318.409302   C177.228241,312.570892 172.978043,308.704529 169.337921,304.363892   C166.022324,300.410248 162.628052,296.508575 159.052216,292.792084   C156.774414,290.424683 156.535339,288.257233 158.647980,285.825958   C160.938507,283.190033 161.475586,278.251953 167.025406,279.991211   C175.123840,282.529175 183.309906,284.788361 191.465591,287.142273   C193.460815,287.718140 195.483047,288.200470 197.492844,288.725830   C197.743988,288.318634 197.995148,287.911469 198.246292,287.504303   C192.358673,281.716400 186.464798,275.934845 180.584915,270.139069   C172.421555,262.092529 172.428253,261.409943 180.641541,252.830597   C181.982361,252.769440 182.738617,253.730225 183.533844,254.554489   C194.980957,266.419678 206.388626,278.323059 217.878830,290.146301   C219.732361,292.053558 220.753036,293.797302 218.550446,296.434601  z"/>
<path fill="#000000" opacity="1.000000" stroke="none" d=" M736.904907,805.132324   C745.121033,817.500610 753.150024,829.560242 761.141052,841.645020   C765.850891,848.767517 765.823730,848.785339 758.495728,853.567078   C758.356323,853.658142 758.206543,853.738403 758.082642,853.847595   C754.882568,856.667236 752.168152,856.616089 749.964600,851.535950   C749.207581,853.795959 748.715942,855.274658 748.217102,856.750977   C744.472717,867.832397 730.476562,874.279053 720.108643,869.039917   C707.626343,862.732239 700.518555,851.863892 698.882935,838.260498   C697.203735,824.294312 708.684387,813.723694 723.887451,814.253235   C723.841553,811.155945 721.474670,809.257324 720.188232,806.902588   C718.914917,804.571960 717.311523,802.422180 715.861755,800.187378   C709.943665,791.064331 710.004272,791.161682 719.216125,785.591675   C721.876404,783.983032 723.286743,784.456787 724.855713,786.913940   C728.708923,792.948425 732.741394,798.868286 736.904907,805.132324  M716.756836,828.280945   C713.037537,832.333252 712.706543,836.744324 715.092346,841.620789   C717.018250,845.556824 719.367004,849.143555 722.576355,852.131653   C727.019470,856.268494 731.478760,856.881165 736.197815,854.057556   C741.046814,851.156250 742.912415,846.458008 741.340393,840.738281   C740.217529,836.653076 738.033752,833.109436 735.235535,829.964355   C729.606873,823.638062 724.496033,823.041077 716.756836,828.280945  z"/>
<path fill="#000000" opacity="1.000000" stroke="none" d=" M927.360229,375.387299   C932.299988,373.267914 934.369507,375.133698 935.256958,379.703705   C936.957947,388.463837 939.569275,387.784973 929.007812,390.499878   C923.091797,392.020599 917.231689,393.758820 910.510681,395.631927   C916.553284,399.729126 920.402039,404.393738 921.724976,410.982361   C923.356079,419.105682 921.280945,425.953705 914.939514,431.104523   C905.412537,438.842773 894.197266,441.730957 882.187683,440.030609   C868.200989,438.050385 860.439697,422.610443 866.856018,408.236786   C865.636658,406.284851 862.650208,409.298004 861.830872,406.637604   C860.710510,402.999725 859.427490,399.336487 858.981323,395.592682   C858.678955,393.055756 861.593506,392.952148 863.405396,392.464081   C881.854492,387.494324 900.323608,382.598663 918.787231,377.682983   C921.518433,376.955841 924.250610,376.232300 927.360229,375.387299  M907.053345,406.781555   C905.761719,403.681274 903.579285,401.247620 900.327576,400.594421   C892.771973,399.076538 885.720215,400.696808 879.644531,405.470642   C875.975525,408.353485 875.425903,412.528992 876.453491,416.835510   C877.500122,421.221527 880.153320,424.096222 884.762817,425.133881   C889.415405,426.181244 893.693115,424.772461 897.921997,423.381958   C906.479248,420.568268 908.782715,416.514191 907.053345,406.781555  z"/>
<path fill="#000000" opacity="1.000000" stroke="none" d=" M377.142822,95.189377   C381.453369,92.701454 383.958099,93.670265 385.104279,98.235519   C385.623505,100.303581 386.496307,102.282875 387.419128,104.898903   C380.273285,107.708580 373.357758,110.433220 366.437164,113.144897   C364.732025,113.813034 363.057922,114.659698 361.287048,115.041832   C356.523682,116.069717 356.278015,118.536110 357.969025,122.633652   C361.862915,132.069107 361.695648,132.140381 371.388885,128.420227   C376.053497,126.630028 380.764618,124.948334 385.359772,122.994308   C388.380798,121.709663 390.083984,122.488380 390.960388,125.569443   C391.324005,126.847748 391.730194,128.139160 392.321136,129.322708   C393.948364,132.581985 392.589966,134.190552 389.487976,135.272797   C383.827057,137.247803 378.230927,139.408676 372.609314,141.496277   C366.129364,143.902649 366.092834,143.918472 368.422607,150.197510   C369.796722,153.900864 371.311249,157.552124 372.877716,161.518280   C382.348450,158.020355 391.450775,154.850739 400.387756,151.268585   C404.277191,149.709595 406.289917,150.484131 407.290710,154.504669   C408.135742,157.899292 411.485352,161.315643 405.147827,163.496872   C392.397339,167.885330 379.834137,172.829407 367.268158,177.735046   C363.980896,179.018372 362.518829,178.224442 361.314972,174.992874   C353.872070,155.013962 346.336700,135.068573 338.657715,115.179367   C337.244171,111.518211 338.071442,109.737770 341.687622,108.427956   C353.431335,104.174278 365.100830,99.715668 377.142822,95.189377  z"/>
<path fill="#000000" opacity="1.000000" stroke="none" d=" M87.376282,494.644623   C87.336052,497.728760 87.139343,500.407227 87.396683,503.041382   C87.729004,506.443115 89.341225,509.085663 93.026031,509.739594   C96.884041,510.424225 99.664536,508.767059 100.836685,505.147400   C102.625854,499.622345 103.926140,493.940186 105.668526,488.398499   C109.939613,474.814301 120.522766,469.039490 133.993805,472.832458   C139.575592,474.404144 143.669479,477.824524 146.384384,482.950989   C152.772903,495.014099 149.607361,515.127747 140.017715,524.964172   C136.727585,528.339050 133.908905,529.254883 130.505905,525.386536   C129.526489,524.273132 128.293777,523.365417 127.106789,522.455322   C124.365410,520.353455 124.661362,518.668091 127.379715,516.639160   C134.290710,511.481049 136.591095,504.296326 135.842316,495.944733   C135.460159,491.682281 133.553421,488.697906 128.991486,488.027191   C124.308372,487.338654 121.205139,489.317902 119.807190,493.752411   C118.208572,498.823517 116.981323,504.015015 115.291443,509.053162   C112.614616,517.033752 108.108383,523.379456 99.133972,524.998657   C88.082649,526.992615 79.194679,521.914307 75.676353,511.203735   C71.775795,499.329651 73.158005,487.938934 79.887566,477.288422   C82.097656,473.790588 84.579796,472.783691 87.852036,476.061340   C88.902000,477.113068 90.150696,477.987701 91.387131,478.827606   C94.095413,480.667389 94.242363,482.581757 91.922211,484.914978   C89.377480,487.474030 88.124336,490.731232 87.376282,494.644623  z"/>
<path fill="#000000" opacity="1.000000" stroke="none" d=" M190.385376,730.336487   C196.309998,726.559631 201.985016,723.065491 207.529037,719.374695   C210.120895,717.649231 211.857925,717.700439 213.616364,720.542908   C219.885590,730.677124 220.546295,728.780945 210.889847,734.955994   C193.213699,746.259583 175.515610,757.529724 157.922363,768.961060   C154.717667,771.043274 152.832016,770.962280 150.793686,767.475769   C144.888779,757.375732 144.817551,759.782471 153.463760,754.139465   C158.476273,750.867981 163.466156,747.561951 169.126022,743.837280   C163.122238,741.730530 157.958862,739.498108 154.641785,734.287354   C148.572601,724.753479 149.163605,716.611755 157.877625,709.513855   C167.699631,701.513672 179.074158,695.726074 189.574753,688.671631   C191.287048,687.521301 192.719223,687.990906 193.821884,689.665649   C194.005005,689.943726 194.194244,690.218323 194.391052,690.486877   C200.742218,699.152344 200.759842,699.179199 191.841599,704.944214   C185.128845,709.283569 178.307190,713.456543 171.640167,717.864136   C166.087997,721.534668 164.830856,724.895996 166.896484,729.453613   C169.420044,735.021606 174.561996,737.362000 180.435226,735.700684   C184.040207,734.680969 187.008133,732.522888 190.385376,730.336487  z"/>
<path fill="#000000" opacity="1.000000" stroke="none" d=" M920.635132,472.151062   C923.356201,477.279938 927.551819,477.689941 931.969238,476.164642   C936.341919,474.654816 936.951538,470.770416 936.675476,466.693390   C936.337708,461.705139 934.066162,457.666321 929.949158,455.007172   C926.445557,452.744202 926.428711,450.972198 929.286316,448.082062   C935.314575,441.985168 936.389282,441.747986 941.989868,448.444061   C950.328857,458.414307 951.503418,469.989075 947.369995,481.788208   C943.869263,491.780945 930.030945,494.968445 921.234070,488.513947   C919.777222,487.445068 918.445984,486.204956 916.859619,484.879242   C916.336426,485.445984 915.736267,485.826874 915.529114,486.360443   C911.610718,496.450226 903.532837,499.034271 893.756165,498.319000   C884.481934,497.640564 878.951782,492.023438 875.964294,483.746643   C873.134888,475.907867 872.637817,467.829132 874.970093,459.714203   C875.955750,456.284576 877.797607,453.349152 880.294983,450.804169   C887.572571,443.387665 890.934265,443.907410 895.656128,452.926239   C897.016296,455.524170 896.734619,456.938782 894.195862,458.596802   C887.288330,463.108215 885.424683,469.144501 888.185547,476.680267   C889.988220,481.600616 893.670044,483.645538 899.309875,482.719971   C904.025696,481.946106 906.855164,479.257721 906.893433,474.322510   C906.923157,470.500793 906.742065,466.667267 906.435974,462.856537   C906.216492,460.123749 907.168701,458.765442 909.967529,458.678040   C911.456604,458.631561 912.953735,458.428192 914.419800,458.150726   C916.853149,457.690094 917.979370,458.571411 918.632324,461.038605   C919.572815,464.591583 918.657898,468.428009 920.635132,472.151062  z"/>
<path fill="#000000" opacity="1.000000" stroke="none" d=" M863.231323,744.937012   C862.321411,746.579651 861.624512,747.913635 860.783142,749.149231   C849.602356,765.567932 835.870789,763.762024 822.452148,752.988953   C819.992310,751.014038 821.348206,749.217834 822.583008,747.378479   C827.315247,740.329163 832.071167,733.295471 836.765015,726.220642   C837.750427,724.735413 839.177002,723.416809 839.099670,721.055542   C835.300232,718.382690 831.125000,718.137878 827.154663,720.532166   C822.252625,723.488403 819.666504,728.015320 820.150940,733.924255   C820.633850,739.813354 818.539978,742.407959 812.545532,743.666260   C810.314636,744.134521 809.373230,742.952148 808.754456,741.375061   C807.472717,738.108459 806.605591,734.688965 806.854736,731.153198   C808.312744,710.458374 830.121460,698.365295 848.184448,708.277466   C856.969177,713.098206 863.715881,719.604004 865.676636,730.052002   C866.653625,735.257935 865.232605,739.913513 863.231323,744.937012  M851.443909,741.700439   C854.017761,735.339172 853.077209,731.242065 847.833252,727.728760   C844.096008,733.422485 840.363525,739.108948 836.616760,744.817200   C843.482666,748.924622 846.279114,748.345154 851.443909,741.700439  z"/>
<path fill="#000000" opacity="1.000000" stroke="none" d=" M423.364380,873.357056   C433.509033,866.349121 445.891815,866.623779 456.883514,873.862061   C465.351868,879.438721 469.257263,890.530945 466.888184,902.277710   C462.947906,921.815002 449.204315,930.579590 430.728790,925.337646   C416.759613,921.374146 409.783569,905.591125 416.092133,892.347534   C417.103546,890.224182 418.627838,890.097900 420.623932,890.473755   C429.277740,892.102783 437.949188,893.637817 446.606506,895.248657   C452.353333,896.317993 453.359131,895.262817 451.757416,889.709961   C449.545013,882.039917 438.578308,878.710510 431.513977,883.564087   C427.315857,886.448425 426.220673,885.990479 421.270203,880.438965   C418.193115,876.988342 421.185333,875.523438 423.364380,873.357056  M445.842163,905.338318   C441.285736,904.535645 436.703583,903.853333 432.182037,902.887390   C429.234253,902.257629 428.665833,903.686890 428.755096,906.082153   C428.921783,910.556763 432.116791,913.929443 436.895355,914.657349   C442.222687,915.468933 447.351959,912.877502 448.917786,908.820068   C449.891205,906.297607 448.099213,906.066895 445.842163,905.338318  z"/>
<path fill="#000000" opacity="1.000000" stroke="none" d=" M366.364929,860.997925   C365.949646,877.113647 354.994537,890.770020 341.297760,892.706299   C328.158051,894.563904 313.613892,884.936707 311.304413,872.636414   C309.850555,864.893066 313.426086,858.334412 317.037628,851.939697   C318.392487,849.540710 320.566406,850.808167 322.343933,851.680237   C330.120117,855.495117 337.854370,859.395630 345.633514,863.204529   C350.462921,865.569153 351.886536,864.658264 351.925385,859.336731   C351.981873,851.601074 342.690887,845.358093 334.589813,847.627441   C332.804352,848.127625 330.932251,850.322876 329.128235,848.296326   C326.926514,845.822937 325.049927,842.945068 324.193146,839.726746   C323.743195,838.036743 325.819580,837.438599 327.065735,836.717896   C335.941498,831.584717 347.506226,833.451904 357.137054,841.536682   C363.041901,846.493652 366.791626,852.501709 366.364929,860.997925  M336.433838,880.639038   C340.334320,880.286255 343.187286,878.394897 345.520660,874.350708   C339.214386,871.270447 333.186005,868.325867 326.995697,865.302185   C326.288483,866.429810 325.680847,867.051270 325.471863,867.786072   C323.603729,874.354614 326.942505,878.531677 336.433838,880.639038  z"/>
<path fill="#000000" opacity="1.000000" stroke="none" d=" M660.093994,860.250061   C656.712952,868.012756 656.474670,867.998779 649.208008,866.462646   C646.138245,865.813660 645.287964,864.239197 645.887878,861.558289   C646.541016,858.639771 647.367249,855.771912 649.015686,853.185791   C659.157532,837.275452 683.709412,836.354492 694.734741,851.535950   C698.719666,857.023010 701.375244,863.217468 702.040161,869.909912   C703.095825,880.535889 698.495117,888.645386 689.478455,894.202637   C673.173828,904.251648 657.527039,898.313721 651.632019,880.066956   C650.659973,877.058105 651.769775,875.792114 654.230042,874.693054   C661.069458,871.638000 667.890259,868.539001 674.676392,865.367249   C677.333984,864.125183 680.282593,863.333618 682.351685,861.179443   C679.955688,852.365417 666.731323,851.627930 660.093994,860.250061  M685.596191,871.704224   C680.722656,873.800964 675.842102,875.881470 670.978210,878.000183   C667.726685,879.416565 667.850220,881.449585 669.996155,883.806030   C673.126770,887.244080 678.552124,887.381531 683.144226,884.135010   C687.505615,881.051880 688.729553,876.234375 685.596191,871.704224  z"/>
<path fill="#000000" opacity="1.000000" stroke="none" d=" M699.107361,135.467010   C701.990234,136.545151 704.571228,137.313766 706.914917,138.537140   C723.642822,147.269028 723.107544,161.682938 714.812622,175.287674   C713.122803,178.059280 711.001587,177.290985 708.779846,176.158081   C701.360229,172.374756 693.940796,168.591125 686.512207,164.825500   C684.892151,164.004288 683.234558,163.257217 681.641541,162.498535   C678.453064,166.818390 678.485229,171.094635 681.572021,174.844315   C685.635254,179.780212 691.591187,181.480408 698.126038,179.472122   C704.376221,177.551346 703.870605,183.631393 705.998535,186.323349   C708.208252,189.118851 705.378052,190.425232 703.309204,191.434021   C698.874634,193.596390 694.273743,194.647827 689.283386,193.450516   C681.396973,191.558365 674.756653,187.662781 669.662659,181.366409   C664.421570,174.888229 663.598938,167.435760 665.761169,159.628204   C669.822693,144.962646 681.252930,131.646545 699.107361,135.467010  M688.698303,149.948059   C687.613159,151.237457 685.231995,152.630890 688.011719,154.179367   C693.428711,157.197021 699.048828,159.850037 704.570190,162.646637   C707.317200,156.968079 706.958313,153.661621 703.746338,150.648529   C699.508362,146.672943 694.681824,146.284286 688.698303,149.948059  z"/>
<path fill="#000000" opacity="1.000000" stroke="none" d=" M618.666382,122.765427   C630.402405,106.307610 651.451538,111.115425 660.951782,120.861702   C667.546448,127.627235 668.083130,141.692520 662.465454,149.830887   C660.730469,152.344406 658.702820,151.322235 656.707031,150.657471   C648.495850,147.922516 640.322998,145.072342 632.105774,142.355942   C627.357056,140.786148 625.678528,142.411255 626.711487,147.392395   C628.407288,155.570465 638.201538,159.970871 646.091431,156.099594   C650.248840,154.059723 652.203918,155.127747 655.836731,161.082672   C658.286926,165.098999 654.708374,166.118958 652.565857,167.406845   C642.144653,173.671234 632.275208,170.590805 623.020813,164.745346   C613.922302,158.998337 610.624023,150.242447 612.145691,139.740936   C613.012024,133.762238 614.990906,128.103714 618.666382,122.765427  M635.591492,133.063339   C640.605469,134.644119 645.619385,136.224915 650.596741,137.794159   C653.002197,131.027451 651.626343,127.489487 646.125061,125.163887   C639.853455,122.512634 634.829285,124.423096 631.742859,130.665314   C632.307861,132.079514 633.761719,132.216110 635.591492,133.063339  z"/>
<path fill="#000000" opacity="1.000000" stroke="none" d=" M290.895447,208.383240   C280.350281,201.987366 274.566101,192.664856 272.899536,181.101486   C271.330658,170.215973 279.530090,158.919708 291.388123,154.257751   C301.980438,150.093399 310.484650,152.713837 318.104858,162.517532   C318.920715,163.567184 319.673370,164.673309 320.375305,165.802979   C323.834991,171.371033 323.821564,171.439270 318.288666,175.055725   C311.736328,179.338531 305.159668,183.584122 298.615662,187.879547   C297.118622,188.862183 295.712128,189.982773 294.071198,191.180588   C296.646576,195.884079 300.353119,197.324661 305.033386,196.874741   C310.578156,196.341705 316.055695,192.433838 316.909760,187.017319   C317.693634,182.046219 320.167725,181.381866 324.348267,181.596756   C330.226990,181.898880 330.957336,182.914307 330.034943,188.946640   C327.634216,204.646942 303.827576,216.588989 290.895447,208.383240  M287.015717,174.334625   C286.554962,176.970642 286.538208,179.498596 289.011902,182.071777   C294.032745,178.786957 298.996979,175.588242 303.905945,172.306915   C306.372498,170.658173 305.347717,169.054367 303.661469,167.526474   C298.482239,162.833618 290.573212,165.751862 287.015717,174.334625  z"/>
<path fill="#000000" opacity="1.000000" stroke="none" d=" M878.643188,377.694214   C873.570496,367.264984 868.817444,357.066315 863.878723,346.469208   C859.353516,348.555908 856.362366,351.368286 856.291931,356.232727   C856.206543,362.126434 858.441650,367.002991 863.884033,369.802765   C869.362793,372.621277 870.471863,375.535950 868.229980,381.440247   C867.510010,383.336578 866.267761,383.447083 864.722107,383.366730   C860.762939,383.160950 857.296204,381.596649 854.184265,379.270569   C838.017151,367.186035 839.281555,342.986542 856.593445,332.938690   C862.576599,329.466034 868.929077,326.936554 875.956726,327.318451   C891.590149,328.167969 904.161865,344.628754 901.165039,360.065491   C899.480896,368.740326 888.346497,377.696777 878.643188,377.694214  M877.787109,341.593079   C876.408447,341.892792 874.735291,341.574646 873.833740,343.807465   C876.389099,349.481171 879.068542,355.430237 881.779175,361.448730   C883.041016,361.079468 883.722290,361.019104 884.250732,360.703064   C887.933960,358.500336 889.490723,355.194305 888.583618,351.035095   C887.411926,345.662170 884.140686,342.300720 877.787109,341.593079  z"/>
<path fill="#000000" opacity="1.000000" stroke="none" d=" M128.833374,685.027893   C126.329765,681.014099 124.545944,677.059265 123.861046,672.748901   C121.946266,660.698242 132.006287,647.653625 144.155167,646.119568   C146.948303,645.766968 147.515198,647.763367 148.312576,649.526611   C151.668762,656.947998 154.936172,664.409546 158.289810,671.832092   C159.161972,673.762451 159.602875,675.981567 161.784073,677.513062   C166.068756,675.732727 168.652359,672.610046 168.718948,667.806274   C168.801910,661.820923 166.260971,657.197876 160.826889,654.431335   C155.788208,651.866150 154.478210,647.826111 156.970444,642.573120   C157.786880,640.852234 159.097336,640.540405 160.648804,640.862915   C162.429764,641.233154 164.229767,641.676147 165.903381,642.371765   C176.843369,646.918884 180.475647,656.576355 181.965759,667.035217   C183.256775,676.096619 179.516510,683.797485 171.979218,689.057251   C163.927704,694.675903 155.215546,698.585327 144.926514,696.427795   C138.030365,694.981628 132.828400,691.182251 128.833374,685.027893  M141.526154,681.166809   C144.546600,682.818604 147.626526,683.413879 151.394516,681.711731   C148.915039,675.096558 146.258743,668.826721 143.114716,662.792480   C134.683456,666.208130 133.977112,673.667419 141.526154,681.166809  z"/>
<path fill="#000000" opacity="1.000000" stroke="none" d=" M859.804077,619.114258   C869.569824,598.385254 896.689880,595.544922 910.873840,613.335571   C921.254089,626.355286 914.427979,645.331299 905.564758,651.955078   C899.545288,656.453552 885.339355,656.510132 878.789673,652.328186   C876.480896,650.854004 876.988098,649.164307 877.613953,647.158630   C880.090088,639.223206 882.506531,631.269165 884.930664,623.317566   C885.507141,621.426636 886.295898,619.567749 886.002502,617.171021   C881.784485,615.267883 877.996521,616.463074 874.734009,619.325500   C870.872986,622.713013 869.478271,630.460999 871.351135,635.035400   C872.070007,636.791199 874.800354,638.301208 873.354675,640.244568   C871.510986,642.722839 868.991760,644.817810 866.435059,646.608765   C864.376892,648.050476 863.147766,645.962646 862.067871,644.539856   C856.111816,636.692505 856.382629,628.225952 859.804077,619.114258  M898.848206,640.501953   C906.583801,634.089111 905.526245,624.269653 896.519836,620.883118   C894.275330,625.309021 893.268616,630.167358 891.950928,634.898560   C891.416260,636.818542 889.521667,639.088318 891.580200,640.840393   C893.470703,642.449524 895.957886,641.793518 898.848206,640.501953  z"/>
<path fill="#000000" opacity="1.000000" stroke="none" d=" M294.166138,844.025879   C290.564697,842.583740 287.326752,841.284241 284.079071,840.009644   C281.441803,838.974548 279.584625,840.020203 278.193420,842.269043   C276.733093,844.629639 277.874084,846.428406 279.548218,847.986023   C283.689911,851.839355 288.699615,853.388062 294.249176,852.859436   C298.379211,852.466003 300.482391,853.547058 300.291473,858.205750   C300.039124,864.362488 299.569275,865.059631 294.109009,865.364990   C283.878693,865.937195 275.646759,861.619812 268.635101,854.770874   C262.352631,848.634277 261.561310,841.613953 266.303162,833.895569   C270.304169,827.382935 274.872955,821.219055 279.192627,814.902283   C280.873718,812.443970 282.045990,810.450623 278.973419,807.658325   C276.086609,805.034729 279.815033,802.674866 280.773834,800.283264   C281.628204,798.152039 283.278656,797.533508 285.660675,798.313232   C292.029236,800.398071 295.840973,805.471558 296.358124,813.360596   C304.837555,810.238770 311.592010,813.385010 317.317749,819.455872   C322.470856,824.919678 322.938965,831.839478 318.898010,838.765930   C314.994354,845.457031 309.033905,848.155212 301.649292,846.415222   C299.233185,845.845947 296.897736,844.934326 294.166138,844.025879  M299.495270,834.875549   C303.460724,835.063171 305.917908,832.989929 306.532166,829.304688   C307.187073,825.375732 304.406921,823.186768 301.256378,821.782227   C295.508362,819.219727 289.800049,822.591614 286.780243,830.375610   C290.746368,831.854736 294.457977,833.976562 299.495270,834.875549  z"/>
<path fill="#000000" opacity="1.000000" stroke="none" d=" M142.366684,414.442078   C155.389923,421.842346 159.936783,434.853271 154.676498,448.881683   C149.804153,461.875488 137.998260,468.203369 123.813530,465.644470   C118.143837,464.621674 112.817543,462.874542 108.186592,459.437347   C98.893585,452.539856 95.918518,440.275848 100.365067,427.773041   C104.396652,416.437012 113.833641,409.930725 125.627701,410.430573   C131.328079,410.672180 136.903320,411.539795 142.366684,414.442078  M131.720581,426.690155   C129.594559,426.311249 127.481689,425.815582 125.340157,425.574310   C117.437248,424.683868 111.519547,429.763367 111.322365,437.519989   C111.164986,443.710358 114.477898,447.307129 122.391457,449.537537   C131.783844,452.184784 139.042938,450.733643 141.912888,445.627106   C142.156250,445.194122 142.360748,444.736237 142.549713,444.276154   C145.940826,436.019257 142.475571,430.058411 131.720581,426.690155  z"/>
<path fill="#000000" opacity="1.000000" stroke="none" d=" M219.568848,241.565079   C220.777573,238.535049 222.997818,235.705475 219.274078,233.356750   C215.385635,230.904160 213.027618,233.693115 210.840591,236.217270   C207.925003,239.582230 206.376038,243.562775 206.224213,248.069458   C206.137848,250.633331 206.052490,253.604950 202.256165,252.744156   C198.792099,251.958710 193.396774,253.506943 193.791504,246.989639   C194.369156,237.451782 198.854355,229.857697 205.934280,223.763550   C214.768173,216.159668 222.586411,216.394562 231.211502,224.287750   C236.368240,229.006882 241.464890,233.791626 246.602234,238.532043   C248.576019,240.353333 250.279785,241.330261 253.053894,239.147034   C256.623077,236.338089 258.470978,240.682068 260.929810,242.079788   C263.220764,243.382126 262.521881,245.412994 261.365387,247.274857   C257.751038,253.093811 252.911102,256.585938 245.143600,255.041489   C246.782150,263.496704 243.474411,269.474243 237.502472,274.302490   C231.482437,279.169617 225.162445,279.508667 218.601196,275.279358   C211.800018,270.895416 209.340820,264.779938 211.317825,257.302338   C212.840759,251.542160 216.524612,246.931015 219.568848,241.565079  M224.226028,252.891022   C222.482513,258.456604 223.593262,261.646393 227.793884,263.136993   C231.178772,264.338104 235.751709,261.352936 237.255356,256.960632   C238.896545,252.166504 236.378662,247.511276 229.735565,243.231049   C228.010498,246.224396 226.286667,249.215576 224.226028,252.891022  z"/>
<path fill="#000000" opacity="1.000000" stroke="none" d=" M783.264893,829.519958   C780.190308,830.550354 777.571899,829.786438 774.970825,829.305725   C763.080627,827.108215 750.429749,813.025208 749.648132,801.374084   C748.790100,788.584473 755.451538,780.104675 765.789795,774.291992   C775.936646,768.586914 785.737732,770.752502 794.658386,777.645203   C806.957825,787.148682 811.287170,802.213013 804.610046,813.783997   C799.961121,821.840271 793.152405,827.566650 783.264893,829.519958  M769.631104,786.936035   C762.528931,792.471741 761.619507,797.626709 766.559509,804.994080   C769.098572,808.780762 772.342773,811.919067 776.310974,814.163879   C780.977295,816.803589 785.906372,815.914490 790.028870,811.955200   C793.827576,808.307068 794.672241,804.044678 792.490295,799.200012   C790.379028,794.512085 786.892639,790.959412 782.869568,787.904236   C778.971436,784.943909 774.780151,784.140991 769.631104,786.936035  z"/>
<path fill="#000000" opacity="1.000000" stroke="none" d=" M416.199219,159.938904   C413.719147,158.976410 413.883545,156.949081 413.530121,155.214203   C410.444489,140.068161 407.476593,124.897202 404.244843,109.782578   C403.536285,106.468826 404.526764,105.079643 407.645996,104.675682   C408.466125,104.569466 409.283173,104.362679 410.072876,104.111519   C414.649872,102.655739 418.393707,102.716293 418.656433,109.782753   C420.692780,107.273300 422.045715,105.299568 423.697754,103.620003   C434.367401,92.772713 451.387573,96.532181 455.432159,111.059181   C458.676483,122.711784 460.704956,134.702026 463.308044,146.534729   C463.898254,149.217758 462.830139,150.656708 460.218262,151.120056   C447.979065,153.291183 449.885010,155.274033 447.489990,143.396988   C445.978363,135.900604 444.475067,128.401047 442.825562,120.934395   C441.068878,112.982567 437.930634,110.316338 432.137115,111.556366   C425.480530,112.981125 421.550262,118.853111 422.834778,125.782143   C424.317566,133.780884 425.955322,141.751495 427.582184,149.722809   C429.187225,157.587250 429.219269,157.586868 421.515656,159.109146   C419.884125,159.431549 418.240601,159.693436 416.199219,159.938904  z"/>
<path fill="#000000" opacity="1.000000" stroke="none" d=" M559.033386,98.474564   C559.419861,95.127472 561.053894,94.105736 563.903992,94.667984   C566.022278,95.085854 568.155823,95.526810 570.302368,95.680054   C574.536255,95.982323 572.864868,99.556267 573.694031,101.799713   C576.327209,101.914139 577.902832,99.861351 580.013977,99.055870   C595.457092,93.163689 608.472229,104.047600 606.206848,121.475189   C604.817322,132.165039 602.382324,142.715591 600.628784,153.363602   C600.091492,156.626343 598.617188,157.397720 595.538269,156.978165   C585.105408,155.556442 585.167419,155.643723 587.167480,145.311768   C588.713562,137.325073 590.109314,129.307526 591.448853,121.283157   C592.417358,115.481514 590.808472,112.114075 586.607849,110.553452   C580.926208,108.442589 575.504822,110.091148 572.688171,114.914261   C569.667358,120.087059 569.490112,126.036469 568.339478,131.708542   C567.250000,137.079132 566.221436,142.468063 565.397766,147.884171   C564.957642,150.778290 563.499146,151.297607 560.893677,150.952332   C550.081970,149.519562 550.194458,149.535034 552.178955,138.681992   C554.599915,125.441788 556.710388,112.144806 559.033386,98.474564  z"/>
<path fill="#000000" opacity="1.000000" stroke="none" d=" M371.567261,893.299011   C374.227234,892.186646 375.235535,893.820068 376.295105,895.357971   C378.706940,898.858459 382.135773,900.738464 386.229797,901.489868   C388.676147,901.938843 390.985809,901.729919 392.203674,899.136902   C393.382202,896.627563 391.830597,894.853699 390.054382,893.604614   C387.065704,891.502808 383.789307,889.815674 380.732086,887.804810   C370.666748,881.184692 368.193909,872.819763 373.613220,863.577820   C377.818909,856.405457 384.597565,854.693359 392.169342,855.737976   C401.562866,857.033997 409.729462,860.897888 415.295441,868.980408   C417.358307,871.975952 418.256653,874.755432 413.934357,877.153442   C407.114746,880.937073 407.210815,881.163208 404.077179,876.239624   C401.217072,871.745728 397.119568,869.150208 391.917847,868.327576   C389.413635,867.931519 387.303864,868.652100 386.085785,871.137146   C384.800262,873.759827 386.535187,875.373596 388.227325,876.620911   C391.974976,879.383545 396.101959,881.644714 399.765564,884.505676   C408.179901,891.076721 409.530975,899.835266 403.401550,907.658997   C398.758667,913.585327 392.365326,914.599915 385.384857,913.354614   C378.180267,912.069336 371.537109,909.579041 366.692444,903.743225   C362.799805,899.054138 363.028961,898.031250 368.158478,895.150757   C369.175415,894.579712 370.203156,894.027893 371.567261,893.299011  z"/>
<path fill="#000000" opacity="1.000000" stroke="none" d=" M127.919952,364.619812   C131.059601,365.638763 130.448715,367.601593 129.815079,369.600952   C128.719238,373.058746 127.652260,376.525696 126.374298,380.626984   C135.510910,383.692993 144.282593,386.655365 153.068268,389.575684   C156.697876,390.782166 160.347000,391.932892 164.006943,393.044098   C166.705688,393.863495 167.669220,395.294312 166.865128,398.249268   C164.013657,408.728027 164.101334,408.738403 153.684631,405.318787   C144.363281,402.258759 135.031876,399.229279 125.704285,396.188293   C123.788902,395.563873 121.628014,394.596832 120.805779,397.480621   C119.134544,403.342102 115.481956,400.528870 112.095001,399.757843   C107.745522,398.767670 108.192650,396.072296 109.279282,392.959381   C109.375618,392.683411 109.215843,392.318024 109.171799,391.968597   C107.746468,390.334442 105.574707,390.414642 103.754425,389.706818   C95.644142,386.553131 91.425735,379.066193 93.150803,370.571991   C94.080208,365.995636 95.322563,361.511444 97.836563,357.499664   C100.810036,352.754608 101.736603,352.561615 106.450211,355.790741   C108.075394,356.904114 109.871544,357.867401 110.910851,359.941772   C109.559311,362.270020 107.869110,364.553284 106.846764,367.104218   C105.610321,370.189362 105.507675,373.382111 108.928391,375.447998   C112.574661,377.650055 114.580063,376.907684 116.065315,372.880798   C116.468231,371.788361 116.840622,370.684357 117.209801,369.579895   C119.759514,361.951782 119.758064,361.951294 127.919952,364.619812  z"/>
<path fill="#000000" opacity="1.000000" stroke="none" d=" M878.200195,698.806763   C886.079895,706.641541 886.231689,709.387756 879.474487,718.125122   C879.294250,718.358215 878.895569,718.422363 878.390503,718.665710   C877.689941,718.153137 876.805359,717.677795 876.137390,716.991638   C864.063293,704.588440 852.045898,692.129822 839.930847,679.766907   C837.974426,677.770325 837.899170,676.024170 839.018738,673.554871   C844.169678,662.194458 844.121704,661.918884 856.118469,662.779480   C870.548706,663.814758 884.945801,665.314758 899.355042,666.637573   C900.642761,666.755798 902.060669,666.562805 903.469788,668.210999   C902.381470,672.215332 900.175293,676.085510 897.934387,679.878845   C896.810913,681.780640 894.690857,680.950317 892.883545,680.741699   C881.066101,679.377991 869.244080,678.054504 856.709351,677.711487   C863.788818,684.660217 870.868286,691.608948 878.200195,698.806763  z"/>
<path fill="#000000" opacity="1.000000" stroke="none" d=" M241.241364,755.000732   C246.709198,765.918274 245.245667,775.708191 237.563110,784.458008   C229.716934,793.394226 220.304062,799.780090 207.813660,796.382202   C196.118927,793.200684 189.144821,784.795959 186.360840,772.990173   C186.246445,772.505005 186.071838,772.007568 186.089676,771.521851   C186.211533,768.202515 185.864380,764.066589 188.920975,762.451965   C192.205795,760.716736 196.011459,762.948425 199.369415,764.222839   C201.439545,765.008484 200.607117,767.119690 200.177582,768.638855   C198.648209,774.047729 201.538910,777.614929 205.249359,780.663208   C208.845184,783.617310 212.992996,783.470276 216.999176,781.533325   C221.568222,779.324158 225.311401,776.036499 228.209564,771.851013   C231.157272,767.593933 231.460709,763.179993 228.543243,758.807129   C225.696182,754.539734 221.531876,752.292908 216.543304,753.527222   C208.914398,755.414856 211.229141,749.034790 209.949936,745.943970   C208.252930,741.843811 211.449081,740.730286 214.562347,740.132446   C223.437469,738.428040 230.571335,741.720093 236.408188,748.200317   C238.175751,750.162720 239.533997,752.493774 241.241364,755.000732  z"/>
<path fill="#000000" opacity="1.000000" stroke="none" d=" M135.582062,325.862305   C140.042557,323.142242 142.990982,326.668182 145.926834,328.422821   C148.250824,329.811768 145.742310,332.347992 144.964218,334.168701   C141.271927,342.808594 141.204849,342.787109 149.837616,346.721802   C154.232422,348.724823 158.587875,350.826599 163.053177,352.659485   C169.015762,355.106964 172.814240,353.343903 173.442413,347.074585   C174.116745,340.344727 178.689972,343.058167 181.950073,342.901215   C185.840149,342.713928 186.408463,345.509125 186.274002,348.687134   C185.582733,365.026886 172.655731,373.130249 157.749893,366.545959   C151.504318,363.787201 145.254242,361.038544 138.996933,358.306488   C137.082352,357.470520 134.938370,356.703217 133.954086,359.359955   C131.819183,365.122284 128.523758,362.751038 124.822594,361.208160   C120.364792,359.349854 121.437523,356.682739 122.940224,353.623871   C123.151001,353.194794 123.186195,352.679474 123.315582,352.151337   C121.367912,349.010437 115.753998,349.749481 115.292053,346.177612   C114.756973,342.040192 116.702164,337.801483 118.329140,333.715149   C122.711830,333.559753 125.788651,336.925537 129.986908,337.226135   C132.568161,333.962128 133.444962,329.788513 135.582062,325.862305  z"/>
<path fill="#000000" opacity="1.000000" stroke="none" d=" M791.207642,765.306763   C786.727356,766.322815 784.438232,763.055420 781.588623,761.026794   C780.697693,760.392456 780.918640,759.293762 781.209106,758.264404   C783.563477,749.920837 794.718201,745.056030 802.359009,749.203247   C804.681030,750.463562 806.868652,752.062378 808.885864,753.778748   C822.956665,765.750488 836.915894,777.853882 851.038940,789.763306   C853.830750,792.117493 854.053467,793.731323 851.647278,796.619446   C845.190613,804.369324 845.300049,804.525879 837.644592,798.011658   C824.968140,787.225098 812.332214,776.390869 799.694153,765.559265   C797.056763,763.298889 794.428528,761.842163 791.207642,765.306763  z"/>
<path fill="#000000" opacity="1.000000" stroke="none" d=" M271.229187,224.793427   C271.650940,225.334961 271.856110,225.596970 272.064880,225.856049   C278.863586,234.293335 278.819366,234.230881 269.768494,240.648087   C267.708954,242.108353 266.325562,242.108414 264.713623,240.189651   C254.228439,227.708542 243.716675,215.249649 233.175995,202.815353   C231.534286,200.878708 231.688782,199.291962 233.619019,197.735428   C234.912872,196.692078 236.243668,195.673386 237.409592,194.496689   C240.312317,191.567078 243.124207,190.031021 246.435165,196.496109   C246.416763,188.070847 249.019318,182.915726 254.843887,179.557632   C257.536835,178.005035 259.474884,178.072540 260.871338,181.117188   C261.423737,182.321503 262.104523,183.484802 262.859344,184.575027   C265.159332,187.896957 265.013672,190.041550 261.021423,192.390259   C254.656616,196.134827 253.795425,201.623032 257.909851,208.182266   C261.633606,214.118683 266.504517,219.181183 271.229187,224.793427  z"/>
<path fill="#000000" opacity="1.000000" stroke="none" d=" M758.732788,187.011993   C756.583435,187.274460 755.816528,185.781021 754.709229,184.840027   C748.893372,179.897614 743.731323,179.911880 738.436401,185.427521   C732.413574,191.701294 728.255981,199.392487 723.217773,206.417603   C721.875305,208.289459 721.074524,212.093262 718.220825,211.009308   C714.445740,209.575348 710.825500,207.162735 708.223572,203.845901   C707.311768,202.683578 708.649841,201.338470 709.377258,200.275940   C718.403748,187.091934 727.502930,173.957520 736.472961,160.735352   C738.031921,158.437378 739.517151,157.886154 741.747620,159.612640   C742.667480,160.324646 743.672119,160.926376 744.629578,161.590729   C750.471313,165.644302 750.470459,165.645538 746.702759,172.043610   C753.351379,169.096329 758.994568,170.186737 764.130615,174.560730   C767.192017,177.167984 767.646606,179.559769 764.268372,182.243851   C762.453796,183.685593 760.811707,185.344498 758.732788,187.011993  z"/>
<path fill="#000000" opacity="1.000000" stroke="none" d=" M644.995300,891.174805   C646.498352,895.996155 647.701904,900.499878 649.292480,904.862549   C650.598145,908.443665 649.371399,910.190857 645.913208,910.950439   C644.780701,911.199219 643.630676,911.488525 642.577637,911.958435   C638.374939,913.833679 635.491821,913.188843 634.845581,906.767029   C632.140381,913.642395 628.172668,917.586975 621.937866,918.916016   C618.260498,919.699890 615.628052,919.256226 615.579529,914.633972   C615.562256,912.988403 615.102356,911.350769 614.893433,909.703308   C614.573547,907.180298 615.395691,905.450989 618.187317,905.181030   C629.076355,904.128113 630.436584,896.827576 628.177612,887.690918   C626.345947,880.282654 624.023560,872.971313 621.474792,865.774231   C620.009949,861.637939 620.881958,859.831726 625.162292,858.690552   C633.960876,856.344666 633.908752,856.150879 636.603088,864.673584   C639.355957,873.381287 642.109802,882.088684 644.995300,891.174805  z"/>
<path fill="#000000" opacity="1.000000" stroke="none" d=" M254.481934,823.471069   C251.720596,826.604553 249.014603,829.338684 246.725296,832.385803   C244.513672,835.329529 242.588806,835.144226 240.316925,832.659668   C239.647964,831.928101 238.821960,831.341431 238.077652,830.677490   C233.325562,826.438049 233.326416,826.437073 236.916702,820.690674   C230.303772,822.138916 224.998291,820.356567 220.675507,815.566589   C218.175064,812.795959 217.893158,810.429993 221.298126,808.211853   C222.687515,807.306763 224.005920,806.277832 225.279037,805.212524   C227.289749,803.529907 228.768417,803.540161 230.713516,805.691833   C237.091141,812.746765 243.002808,813.010620 249.820877,806.190430   C255.569992,800.439392 260.912903,794.259705 266.152435,788.031555   C268.748749,784.945435 270.661316,784.642761 273.830078,787.363403   C281.182648,793.676331 281.299164,793.513367 274.993378,800.537109   C268.220673,808.080994 261.476288,815.650330 254.481934,823.471069  z"/>
<path fill="#000000" opacity="1.000000" stroke="none" d=" M152.584869,633.700684   C141.044632,637.110107 129.850891,640.268372 118.758904,643.750793   C114.991928,644.933472 113.039597,644.076172 112.352631,640.232239   C112.236626,639.583130 111.999809,638.949097 111.764236,638.328857   C110.163956,634.115662 109.225426,630.174194 117.082985,629.159607   C109.419395,626.626038 105.870117,622.227051 104.772011,615.851379   C104.160965,612.303589 105.099228,609.954407 109.230728,609.926147   C110.889442,609.914795 112.553223,609.750793 114.203163,609.557617   C116.787521,609.255188 117.945389,610.064880 118.469948,612.918823   C120.227341,622.480103 125.335342,625.695251 135.039474,623.217224   C142.915253,621.206055 150.690475,618.760376 158.416641,616.222290   C161.892746,615.080383 163.520966,615.762207 164.516769,619.418640   C167.784363,631.416565 168.874603,628.726929 157.761307,632.196411   C156.175537,632.691406 154.568436,633.118164 152.584869,633.700684  z"/>
<path fill="#000000" opacity="1.000000" stroke="none" d=" M542.813843,97.887756   C541.921082,113.256538 540.937744,128.185776 540.345215,143.130508   C540.163452,147.714355 538.795776,149.286148 534.060913,148.666138   C525.550537,147.551743 525.368591,147.784409 525.721680,139.062515   C526.286194,125.116829 527.124329,111.182365 527.730225,97.238083   C527.876465,93.871620 529.276001,92.383011 532.661011,92.652451   C534.646973,92.810532 536.650696,92.762779 538.646667,92.772369   C541.783081,92.787437 543.269958,94.263535 542.813843,97.887756  z"/>
<path fill="#000000" opacity="1.000000" stroke="none" d=" M774.927612,236.333466   C776.491516,242.423309 773.780334,247.327698 768.516357,248.574234   C764.209900,249.594040 758.950867,246.056534 757.545105,241.194336   C756.241577,236.685898 759.156067,231.678619 764.072144,230.515610   C769.047974,229.338455 772.263184,232.079605 774.927612,236.333466  z"/>
<path fill="#000000" opacity="1.000000" stroke="none" d=" M145.507492,555.071899   C151.115753,557.528748 153.012192,560.666382 152.250580,566.048218   C151.676605,570.104187 149.324936,572.648743 145.204727,573.240662   C139.527512,574.056335 135.203354,570.409973 134.818298,564.613770   C134.412582,558.506775 138.106659,555.050232 145.507492,555.071899  z"/>
<path fill="#000000" opacity="1.000000" stroke="none" d=" M559.901184,880.200500   C560.279419,877.785889 561.081421,875.950989 562.601929,874.595520   C566.008667,871.558655 569.909668,870.635559 574.027161,872.898987   C577.755798,874.948669 579.349976,878.329834 578.384216,882.526672   C577.411377,886.754822 574.371521,888.837341 570.194824,889.286560   C565.537842,889.787476 562.100586,888.053833 560.426636,883.500488   C560.091797,882.589722 560.050049,881.571106 559.901184,880.200500  z"/>
<path fill="#000000" opacity="1.000000" stroke="none" d=" M534.492920,86.843338   C528.460754,84.330193 526.384827,80.472008 528.072388,75.546539   C529.428040,71.589851 533.875977,69.125755 538.014099,70.038933   C542.596008,71.050034 545.623840,74.961998 545.221008,79.350250   C544.775818,84.200043 541.102600,86.895195 534.492920,86.843338  z"/>
</svg>